<svg xmlns="http://www.w3.org/2000/svg" viewBox="0 0 64 64" role="img" aria-label="SanitApp">
  <defs>
    <linearGradient id="bg" x1="0%" y1="0%" x2="100%" y2="100%">
      <stop offset="0%" stop-color="#14b8a6"/>
      <stop offset="100%" stop-color="#0d9488"/>
    </linearGradient>
  </defs>
  <rect width="64" height="64" rx="16" fill="url(#bg)"/>
  <!-- Botella / spray limpieza -->
  <path fill="#ecfdf5" d="M28 12h8v4c0 2-1 3-1 5h-6c0-2-1-3-1-5v-4z"/>
  <rect x="26" y="20" width="12" height="26" rx="3" fill="#ecfdf5"/>
  <path fill="#99f6e4" d="M38 24c4 2 6 6 6 10s-2 8-6 10V24z"/>
  <circle cx="42" cy="18" r="2.5" fill="#fff" opacity=".9"/>
  <circle cx="46" cy="22" r="1.8" fill="#fff" opacity=".7"/>
  <circle cx="44" cy="14" r="1.5" fill="#fff" opacity=".8"/>
  <!-- Gotas -->
  <path fill="#fff" opacity=".85" d="M18 38c0-3 2-5 3-7 1 2 3 4 3 7a3 3 0 0 1-6 0z"/>
  <path fill="#fff" opacity=".65" d="M14 48c0-2 1.5-3.5 2.5-5 1 1.5 2.5 3 2.5 5a2.5 2.5 0 0 1-5 0z"/>
</svg>
